<svg width="300" height="300" viewBox="0 0 300 300" fill="none" xmlns="http://www.w3.org/2000/svg">
<path d="M266.432 150.681L283.109 153.532L281.31 164.059L279.677 163.78L281.154 155.146L275.381 154.159L273.99 162.297L272.358 162.018L273.749 153.88L267.74 152.852L266.264 161.487L264.632 161.208L266.432 150.681Z" fill="white"/>
<path d="M260.131 188.272L263.037 195.437L270.183 194.195L269.063 196.208L263.663 197.077L265.76 202.143L264.651 204.136L261.94 197.409L254.319 198.716L255.439 196.703L261.284 195.725L259.01 190.285L260.131 188.272Z" fill="white"/>
<path d="M237.978 219.477L248.648 231.378L247.236 232.644L245.842 231.089C246.061 231.861 246.048 232.625 245.802 233.382C245.556 234.161 245.087 234.861 244.396 235.48C243.622 236.175 242.783 236.593 241.88 236.737C240.976 236.903 240.065 236.785 239.146 236.384C238.226 236.005 237.35 235.351 236.517 234.422C235.695 233.504 235.14 232.562 234.853 231.595C234.564 230.65 234.546 229.731 234.799 228.838C235.04 227.956 235.547 227.168 236.322 226.474C236.989 225.876 237.718 225.491 238.509 225.319C239.3 225.147 240.056 225.21 240.776 225.51L236.531 220.775L237.978 219.477ZM237.667 227.363C236.857 228.089 236.464 228.957 236.488 229.967C236.523 230.989 237.021 232.036 237.982 233.108C238.954 234.192 239.941 234.801 240.942 234.935C241.943 235.069 242.849 234.773 243.659 234.047C244.469 233.32 244.862 232.452 244.837 231.443C244.813 230.433 244.315 229.386 243.343 228.302C242.382 227.23 241.395 226.621 240.384 226.475C239.383 226.341 238.477 226.637 237.667 227.363Z" fill="white"/>
<path d="M207.134 249.826C208.21 249.332 209.168 249.271 210.007 249.643C210.839 250.036 211.531 250.837 212.085 252.044L217.527 263.911L215.76 264.722L210.378 252.985C209.664 251.429 208.689 250.934 207.453 251.501C207.09 251.668 206.782 251.861 206.531 252.082L205.895 250.579C206.299 250.27 206.712 250.019 207.134 249.826Z" fill="white"/>
<path d="M179.046 261.725C180.173 261.581 181.181 261.702 182.069 262.089C182.957 262.475 183.688 263.084 184.262 263.913C184.822 264.761 185.18 265.796 185.336 267.018C185.493 268.24 185.405 269.324 185.075 270.27C184.73 271.233 184.177 272.014 183.414 272.611C182.652 273.209 181.707 273.579 180.58 273.724C179.469 273.866 178.47 273.743 177.582 273.357C176.678 272.972 175.946 272.356 175.385 271.508C174.812 270.679 174.447 269.653 174.29 268.43C174.134 267.208 174.228 266.116 174.573 265.152C174.904 264.207 175.458 263.434 176.236 262.834C176.999 262.237 177.935 261.867 179.046 261.725ZM179.244 263.273C178.165 263.411 177.349 263.902 176.795 264.747C176.244 265.608 176.06 266.753 176.242 268.181C176.427 269.625 176.893 270.687 177.642 271.365C178.39 272.044 179.303 272.314 180.382 272.176C181.478 272.036 182.302 271.544 182.855 270.699C183.393 269.856 183.569 268.712 183.384 267.268C183.202 265.839 182.743 264.777 182.009 264.08C181.261 263.402 180.339 263.133 179.244 263.273Z" fill="white"/>
<path d="M143.86 265.603L141.674 277.06L139.812 276.705L140.203 274.654C139.326 275.92 137.924 276.443 135.995 276.221L135.298 276.162L135.471 274.484L136.7 274.572C137.803 274.685 138.694 274.496 139.373 274.007C140.05 273.534 140.486 272.786 140.681 271.764L141.926 265.234L143.86 265.603Z" fill="white"/>
<path d="M106.995 256.901C108.612 257.778 109.637 258.943 110.069 260.396C110.493 261.863 110.262 263.413 109.378 265.045C108.806 266.1 108.092 266.914 107.235 267.487C106.371 268.074 105.455 268.387 104.487 268.427C103.498 268.473 102.518 268.233 101.547 267.707C100.155 266.952 99.3084 265.911 99.0086 264.584C98.7013 263.27 98.9707 261.833 99.8171 260.272L100.172 259.618L107.894 263.804C108.471 262.606 108.617 261.529 108.334 260.575C108.043 259.635 107.349 258.867 106.251 258.272C105.632 257.937 104.992 257.708 104.33 257.586C103.661 257.478 102.955 257.505 102.212 257.666L102.273 256.143C102.974 255.959 103.751 255.935 104.606 256.07C105.453 256.22 106.249 256.497 106.995 256.901ZM102.191 266.418C103.162 266.944 104.092 267.057 104.983 266.757C105.873 266.457 106.635 265.842 107.267 264.91L101.042 261.537C100.52 262.6 100.356 263.558 100.55 264.409C100.73 265.253 101.277 265.922 102.191 266.418Z" fill="white"/>
<path d="M53.724 223.97L52.3276 224.767L48.9953 218.932L50.3917 218.135L53.724 223.97Z" fill="white"/>
<path d="M34.0678 163.428L17.1885 162.254L17.5849 156.556C17.7747 153.827 18.6475 151.77 20.2032 150.387C21.743 149.002 23.8776 148.405 26.607 148.595C29.3364 148.785 31.3757 149.672 32.725 151.258C34.0742 152.843 34.6539 155.001 34.4641 157.73L34.0678 163.428ZM32.5284 161.349L32.7781 157.757C33.0845 153.352 30.9792 150.992 26.4621 150.678C21.961 150.365 19.5572 152.411 19.2508 156.816L19.001 160.408L32.5284 161.349Z" fill="white"/>
<path d="M25.0951 113.807L23.0711 112.986L23.9729 110.762L25.9968 111.582L25.0951 113.807ZM38.6858 119.058L27.8765 114.675L28.6069 112.874L39.4162 117.256L38.6858 119.058Z" fill="white"/>
<path d="M51.4603 89.9761C50.8973 90.6935 50.2632 91.2942 49.5581 91.7781C48.8529 92.262 48.1549 92.5684 47.4639 92.6973L46.7729 91.3619C47.4935 91.1952 48.1543 90.9104 48.7553 90.5074C49.3535 90.082 49.8749 89.5861 50.3194 89.0197C50.8824 88.3022 51.175 87.6573 51.1971 87.0848C51.2193 86.5124 51.0037 86.0483 50.5506 85.6927C50.1982 85.4162 49.8274 85.3184 49.4384 85.3995C49.0367 85.4708 48.5768 85.72 48.0585 86.1471L46.3326 87.5689C44.7679 88.863 43.3499 89.0112 42.0786 88.0136C41.2479 87.3617 40.8376 86.5109 40.8478 85.4612C40.8678 84.399 41.2976 83.333 42.1372 82.2631C42.6311 81.6337 43.201 81.1149 43.8469 80.7065C44.4901 80.2757 45.1486 80.0196 45.8226 79.9383L46.4987 81.2927C45.8724 81.391 45.2785 81.6164 44.7171 81.969C44.1529 82.2992 43.6832 82.7034 43.3078 83.1817C42.7547 83.8866 42.4733 84.5302 42.4638 85.1125C42.4542 85.6948 42.676 86.1638 43.1292 86.5194C43.834 87.0725 44.6526 86.9624 45.585 86.189L47.292 84.7524C48.1004 84.0852 48.8627 83.6969 49.5788 83.5878C50.2824 83.4687 50.9614 83.666 51.616 84.1797C52.4593 84.8415 52.8646 85.6985 52.832 86.7509C52.7868 87.7933 52.3296 88.8684 51.4603 89.9761Z" fill="white"/>
<path d="M75.72 61.8259C74.751 62.4779 73.7763 62.8349 72.7958 62.8969C71.8064 62.9455 70.8647 62.7211 69.9706 62.2235C69.0808 61.7037 68.292 60.9327 67.6042 59.9106C66.568 58.3707 66.1733 56.8814 66.42 55.4425C66.6578 53.9904 67.5068 52.773 68.967 51.7905C69.5643 51.3885 70.2265 51.0972 70.9535 50.9165C71.6805 50.7359 72.366 50.7085 73.01 50.8344L73.243 52.3844C72.6079 52.2717 72 52.2855 71.4193 52.4255C70.8518 52.5567 70.3624 52.7607 69.9508 53.0376C68.942 53.7165 68.3798 54.5576 68.2643 55.5611C68.1399 56.5512 68.4752 57.637 69.2702 58.8184C70.0474 59.9732 70.9358 60.7061 71.9357 61.0168C72.9265 61.3143 73.9264 61.1236 74.9352 60.4447C75.3468 60.1678 75.7201 59.7912 76.0553 59.3149C76.4038 58.8297 76.641 58.2651 76.7669 57.6211L78.115 58.4207C77.989 59.0647 77.7033 59.7005 77.2579 60.3282C76.8167 60.9336 76.3041 61.4328 75.72 61.8259Z" fill="white"/>
<path d="M105.774 43.1692C104.677 43.4663 103.663 43.4843 102.73 43.2232C101.797 42.9621 100.99 42.4598 100.308 41.7164C99.6366 40.9533 99.14 39.9772 98.8178 38.7881C98.4955 37.599 98.4334 36.5134 98.6315 35.5314C98.8408 34.5298 99.2821 33.6808 99.9554 32.9845C100.629 32.2881 101.514 31.7914 102.61 31.4943C103.691 31.2013 104.698 31.1854 105.631 31.4465C106.579 31.7034 107.388 32.2134 108.059 32.9765C108.742 33.72 109.244 34.6862 109.566 35.8754C109.888 37.0645 109.945 38.1598 109.736 39.1614C109.537 40.1434 109.094 40.9847 108.405 41.6852C107.732 42.3816 106.855 42.8762 105.774 43.1692ZM105.366 41.6635C106.416 41.3789 107.157 40.7802 107.589 39.8673C108.018 38.9391 108.043 37.78 107.667 36.3901C107.286 34.9848 106.678 33.9973 105.844 33.4276C105.01 32.8579 104.068 32.7154 103.018 33C101.952 33.2887 101.204 33.8895 100.771 34.8024C100.354 35.711 100.336 36.868 100.717 38.2733C101.094 39.6632 101.694 40.6528 102.516 41.2421C103.35 41.8118 104.3 41.9522 105.366 41.6635Z" fill="white"/>
<path d="M143.332 34.299L139.183 22.299L141.29 22.4536L144.451 32.1672L149.045 23.0231L151.031 23.1689L145.151 34.4325L143.332 34.299Z" fill="white"/>
<path d="M182.738 39.2218C181.046 38.4987 179.917 37.4336 179.353 36.0266C178.795 34.6049 178.88 33.0406 179.61 31.334C180.081 30.2305 180.717 29.3538 181.517 28.7038C182.323 28.0391 183.206 27.6422 184.166 27.5131C185.147 27.3755 186.145 27.5237 187.16 27.9575C188.617 28.58 189.556 29.5381 189.977 30.8319C190.405 32.1109 190.27 33.5669 189.572 35.2001L189.28 35.8842L181.202 32.4322C180.739 33.6785 180.693 34.7637 181.064 35.6877C181.441 36.597 182.203 37.2969 183.351 37.7873C183.998 38.064 184.657 38.2324 185.327 38.2927C186.004 38.3382 186.704 38.2461 187.429 38.0164L187.509 39.5384C186.829 39.787 186.057 39.8834 185.193 39.8275C184.336 39.757 183.517 39.5551 182.738 39.2218ZM186.638 29.3005C185.623 28.8667 184.686 28.8403 183.827 29.2214C182.968 29.6026 182.267 30.2861 181.724 31.272L188.235 34.0543C188.656 32.9467 188.73 31.9781 188.459 31.1485C188.201 30.3252 187.595 29.7092 186.638 29.3005Z" fill="white"/>
<path d="M213.137 52.6694L220.764 43.8444L222.199 45.0842L220.833 46.664C222.226 46.0067 223.702 46.2566 225.261 47.4135L225.835 47.8142L224.845 49.1794L223.825 48.488C222.927 47.8387 222.061 47.5558 221.228 47.6392C220.405 47.7104 219.653 48.1395 218.973 48.9264L214.626 53.9562L213.137 52.6694Z" fill="white"/>
<path d="M258.808 95.4567L260.332 94.9431L262.478 101.311L260.954 101.825L258.808 95.4567Z" fill="white"/>
</svg>
