<svg viewBox="0 0 118 118" fill="none" xmlns="http://www.w3.org/2000/svg">
<circle cx="59" cy="59" r="59" fill="#0AB88A"/>
<path d="M47.911 48.5463C49.9994 46.4434 52.41 44.4191 55.5101 44.0464C57.5759 43.7981 59.7462 44.551 60.9957 46.1973C63.0305 48.8781 63.0905 52.8599 62.9786 56.0539C62.8647 59.3062 61.458 62.4195 59.3334 64.9021C57.0377 67.5846 52.3935 68.127 49.508 66.0446C48.5938 65.3848 47.772 64.4893 47.5548 63.3633C47.4752 62.9505 47.3414 61.8366 47.7923 61.533C48.742 60.8937 50.532 61.0879 51.5919 61.1017C56.6797 61.168 61.7831 61.3434 66.8613 60.9151C67.6979 60.8446 69.9959 60.8472 70.6608 60.0292C71.2732 59.2758 70.9721 57.7245 70.4234 57.0215C69.9332 56.3934 68.9751 56.8996 68.4524 57.2022C66.6506 58.245 64.844 59.7029 63.1924 60.8802C58.7118 64.0739 54.1857 67.2339 49.8939 70.6727C49.0775 71.3269 47.4387 72.4622 47.0561 73.6454C47.0384 73.7004 46.9392 74.1664 47.0561 73.9368" stroke="white" stroke-width="2" stroke-linecap="round"/>
<path d="M99.4561 60.1831L113.501 61.4322L113.355 63.0657L99.3108 61.8167L99.4561 60.1831Z" fill="white"/>
<path d="M93.3216 72.673L98.3869 74.2327C97.9214 73.7964 97.6093 73.2469 97.4506 72.5842C97.3007 71.9381 97.3377 71.252 97.5613 70.5256C97.8164 69.6973 98.2375 69.0318 98.8248 68.529C99.4082 68.039 100.11 67.7319 100.929 67.6075C101.758 67.4999 102.662 67.5971 103.644 67.8993C104.638 68.2053 105.44 68.6339 106.052 69.1849C106.672 69.7526 107.079 70.4012 107.273 71.1306C107.476 71.8766 107.45 72.6638 107.195 73.4921C106.967 74.2312 106.602 74.83 106.098 75.2887C105.594 75.7474 105.014 76.0222 104.358 76.1132L106.04 76.6312L105.575 78.1412L92.8449 74.2213L93.3216 72.673ZM98.7037 71.2331C98.4369 72.0996 98.5288 72.8883 98.9796 73.5991C99.4431 74.3138 100.248 74.8478 101.395 75.2009C102.555 75.558 103.521 75.5695 104.293 75.2354C105.066 74.9013 105.586 74.3009 105.852 73.4344C106.123 72.5552 106.033 71.7601 105.582 71.0493C105.128 70.3513 104.321 69.8237 103.161 69.4666C102.014 69.1135 101.05 69.0956 100.269 69.4131C99.4961 69.7472 98.9744 70.3539 98.7037 71.2331Z" fill="white"/>
<path d="M93.1129 80.4109C93.5087 79.7465 94.0056 79.251 94.6037 78.9244C95.195 78.6093 95.8234 78.4792 96.489 78.5343L94.9769 77.6335L95.7856 76.2761L107.899 83.4924L107.07 84.8841L101.864 81.7827C102.213 82.3167 102.381 82.9209 102.367 83.5956C102.353 84.2702 102.155 84.9282 101.773 85.5697C101.329 86.3142 100.766 86.8557 100.083 87.194C99.4055 87.5505 98.6513 87.6832 97.8209 87.5921C96.9952 87.5193 96.1356 87.2167 95.2422 86.6844C94.3601 86.159 93.6848 85.5472 93.2161 84.8489C92.7521 84.169 92.5097 83.4426 92.4889 82.6698C92.4614 81.9084 92.6694 81.1554 93.1129 80.4109ZM94.4038 80.7841C93.9398 81.563 93.8428 82.3511 94.1128 83.1483C94.3943 83.9523 95.0506 84.6614 96.0815 85.2755C97.1239 85.8965 98.0599 86.1359 98.8895 85.9938C99.7191 85.8517 100.366 85.3912 100.83 84.6123C101.294 83.8333 101.391 83.0453 101.121 82.2481C100.851 81.4509 100.195 80.7418 99.1522 80.1208C98.1213 79.5067 97.1853 79.2673 96.3442 79.4025C95.5146 79.5446 94.8678 80.0052 94.4038 80.7841Z" fill="white"/>
<path d="M88.2796 86.6831C88.7458 86.2066 89.256 85.8663 89.81 85.6622C90.3643 85.4771 90.9107 85.4334 91.4492 85.5312C91.9877 85.6291 92.4571 85.8738 92.8573 86.2655C93.3624 86.7597 93.6368 87.28 93.6805 87.8264C93.7148 88.3823 93.5002 89.021 93.0367 89.7427C92.5733 90.4832 91.8288 91.3776 90.803 92.4259L90.3555 92.8834L90.7986 93.317C91.3895 93.8951 91.9348 94.1862 92.4346 94.1901C92.9345 94.213 93.4456 93.9575 93.9678 93.4238C94.3781 93.0045 94.7125 92.5389 94.9709 92.0269C95.2388 91.5243 95.4399 90.9375 95.574 90.2666L96.809 90.6916C96.712 91.3055 96.488 91.9444 96.1369 92.6082C95.7766 93.2816 95.3632 93.8565 94.897 94.333C94.0205 95.2289 93.1532 95.6767 92.2952 95.6767C91.4279 95.6861 90.532 95.2386 89.6075 94.3341L85.2331 90.054L86.2962 88.9676L87.497 90.1425C87.2644 89.5605 87.2154 88.9623 87.3501 88.3479C87.4755 87.7431 87.7854 87.1882 88.2796 86.6831ZM88.9698 87.7221C88.4103 88.2939 88.1487 88.9521 88.1851 89.6966C88.2311 90.4503 88.559 91.1256 89.1689 91.7224L89.5978 92.142L90.0314 91.6989C90.7867 90.9269 91.3454 90.2797 91.7074 89.7572C92.0696 89.2535 92.2488 88.8225 92.2449 88.4643C92.2412 88.1249 92.0868 87.806 91.7819 87.5076C91.3911 87.1253 90.9413 86.9463 90.4324 86.9708C89.9142 87.0047 89.4267 87.2551 88.9698 87.7221Z" fill="white"/>
<path d="M81.1159 92.7226C81.9344 92.1717 82.714 91.9927 83.4544 92.1855C84.1912 92.3968 84.8686 92.9615 85.4864 93.8797L91.5606 102.906L90.2165 103.811L84.2094 94.8837C83.4129 93.7 82.5445 93.4246 81.6042 94.0573C81.3277 94.2434 81.1011 94.4441 80.9245 94.6593L80.1984 93.5087C80.4893 93.2005 80.7951 92.9384 81.1159 92.7226Z" fill="white"/>
<path d="M71.9212 97.7271L72.1772 98.92L66.6619 111.824L74.5816 110.125L74.8796 111.513L65.0044 113.632L64.7484 112.44L70.2832 99.5309L62.0702 101.293L61.7723 99.905L71.9212 97.7271Z" fill="white"/>
<path d="M58.5375 99.432C59.2039 99.45 59.8003 99.5929 60.3266 99.8605C60.8392 100.141 61.2426 100.512 61.5369 100.974C61.8312 101.435 61.9708 101.946 61.9557 102.506C61.9366 103.212 61.7416 103.767 61.3705 104.17C60.9862 104.573 60.3718 104.85 59.5274 105.001C58.6693 105.164 57.5073 105.226 56.0411 105.187L55.4014 105.169L55.3846 105.789C55.3623 106.616 55.5195 107.213 55.8563 107.583C56.1795 107.965 56.7142 108.166 57.4606 108.186C58.0471 108.202 58.6159 108.131 59.167 107.972C59.7178 107.827 60.2848 107.576 60.868 107.218L61.3959 108.413C60.8797 108.759 60.2589 109.029 59.5334 109.223C58.7945 109.416 58.0919 109.504 57.4255 109.486C56.1726 109.452 55.2546 109.12 54.6714 108.491C54.0748 107.861 53.794 106.9 53.829 105.607L53.9943 99.4893L55.5137 99.5304L55.4683 101.21C55.7371 100.643 56.1425 100.201 56.6847 99.8821C57.2135 99.563 57.8311 99.4129 58.5375 99.432ZM58.2446 100.645C57.4449 100.623 56.7844 100.879 56.2632 101.411C55.7416 101.957 55.4693 102.657 55.4462 103.51L55.43 104.11L56.0498 104.127C57.1294 104.156 57.9838 104.125 58.6132 104.036C59.2288 103.959 59.6666 103.797 59.9267 103.551C60.1731 103.318 60.3021 102.988 60.3136 102.561C60.3284 102.015 60.1538 101.563 59.79 101.207C59.4129 100.85 58.8977 100.662 58.2446 100.645Z" fill="white"/>
<path d="M52.0795 95.4993L49.5181 98.7138L51.053 109.002L49.3509 108.555L48.24 100.115L43.1031 106.912L41.459 106.48L50.4354 95.0672L52.0795 95.4993Z" fill="white"/>
<path d="M43.9505 92.9981L40.7274 95.5486L39.8912 105.917L38.3347 105.096L39.165 96.6236L32.6215 102.08L31.1181 101.287L42.447 92.2046L43.9505 92.9981Z" fill="white"/>
<path d="M32.9042 90.0228C33.407 90.4606 33.7764 90.9501 34.0123 91.4914C34.2294 92.0339 34.3047 92.5768 34.2383 93.1201C34.1719 93.6634 33.9549 94.1462 33.5872 94.5686C33.1232 95.1016 32.6197 95.4057 32.0768 95.4811C31.5238 95.5477 30.8736 95.3706 30.1263 94.9497C29.3601 94.5302 28.4239 93.8389 27.3178 92.8758L26.8351 92.4556L26.4279 92.9232C25.8851 93.5467 25.6263 94.108 25.6513 94.6071C25.6576 95.1076 25.9423 95.6029 26.5054 96.0932C26.9479 96.4785 27.4322 96.7852 27.9583 97.0134C28.4757 97.2517 29.0732 97.4183 29.7507 97.5132L29.3982 98.7709C28.7797 98.7097 28.1289 98.5232 27.4458 98.2113C26.7526 97.8907 26.1546 97.5115 25.6518 97.0737C24.7065 96.2507 24.209 95.411 24.1592 94.5544C24.0994 93.6891 24.4941 92.7687 25.3433 91.7933L29.3619 87.1775L30.5083 88.1756L29.4052 89.4426C29.9727 89.1766 30.567 89.0929 31.1881 89.1917C31.7992 89.2818 32.3712 89.5588 32.9042 90.0228ZM31.907 90.7722C31.3037 90.2469 30.6314 90.0241 29.8903 90.1037C29.1405 90.1934 28.4854 90.56 27.9251 91.2036L27.5311 91.6561L27.9987 92.0632C28.8133 92.7724 29.4919 93.2925 30.0345 93.6235C30.5584 93.9559 30.9991 94.1097 31.3565 94.085C31.6951 94.0615 32.0045 93.8889 32.2846 93.5671C32.6436 93.1548 32.7961 92.6954 32.7421 92.1888C32.6781 91.6734 32.3998 91.2012 31.907 90.7722Z" fill="white"/>
<path d="M28.1838 85.9353L20.2818 91.5955L19.3618 90.311L20.7113 89.3444C20.0263 89.4414 19.3884 89.3407 18.7974 89.0423C18.2065 88.744 17.6975 88.2967 17.2705 87.7006C15.9272 85.8253 16.2962 84.1424 18.3774 82.6516L23.3039 79.1227L24.2473 80.4397L19.402 83.9104C18.665 84.4383 18.2332 84.969 18.1068 85.5024C17.9619 86.0326 18.1145 86.6121 18.5649 87.2408C19.0851 87.9671 19.7281 88.3839 20.4939 88.4914C21.2411 88.5958 21.9887 88.3801 22.7366 87.8444L27.2404 84.6183L28.1838 85.9353Z" fill="white"/>
<path d="M15.485 72.4943L14.1782 72.7904L12.9407 67.3289L14.2476 67.0328L15.485 72.4943Z" fill="white"/>
<path d="M18.3072 55.7066L4.35018 53.7039L4.58312 52.0805L18.5402 54.0832L18.3072 55.7066Z" fill="white"/>
<path d="M25.1348 43.5083L20.1657 41.6651C20.6058 42.127 20.8864 42.6932 21.0074 43.3639C21.1205 44.0173 21.0449 44.7003 20.7806 45.4129C20.4792 46.2255 20.0211 46.8661 19.4063 47.3349C18.7962 47.7912 18.0785 48.0583 17.2533 48.1361C16.4201 48.1968 15.5223 48.0487 14.5597 47.6916C13.5846 47.3299 12.8074 46.8567 12.2279 46.272C11.6405 45.6701 11.2706 44.9996 11.1182 44.2605C10.9579 43.5042 11.0284 42.7197 11.3298 41.9072C11.5988 41.1821 11.9978 40.6048 12.5269 40.1754C13.0559 39.7459 13.6504 39.5042 14.3104 39.4504L12.6602 38.8383L13.2097 37.3569L25.6982 41.9895L25.1348 43.5083ZM19.68 44.642C19.9953 43.7919 19.948 42.9993 19.5381 42.2642C19.1157 41.5244 18.3419 40.9459 17.2168 40.5285C16.0792 40.1066 15.1154 40.0405 14.3252 40.3305C13.535 40.6204 12.9823 41.1905 12.6669 42.0405C12.347 42.9031 12.392 43.7019 12.8019 44.4371C13.2164 45.1597 13.9925 45.732 15.1301 46.154C16.2552 46.5713 17.2167 46.6436 18.0148 46.3708C18.8049 46.0808 19.36 45.5046 19.68 44.642Z" fill="white"/>
<path d="M25.7932 35.7648C25.3591 36.4048 24.8339 36.8703 24.2177 37.1612C23.609 37.4411 22.974 37.534 22.3128 37.44L23.7694 38.4279L22.8825 39.7355L11.2134 31.8209L12.1227 30.4802L17.1379 33.8818C16.8206 33.3282 16.6887 32.7152 16.7421 32.0425C16.7956 31.3699 17.0319 30.7246 17.451 30.1067C17.9375 29.3894 18.5314 28.882 19.2327 28.5843C19.9304 28.2681 20.6911 28.1799 21.5147 28.3196C22.3347 28.4408 23.1751 28.7933 24.0358 29.3771C24.8854 29.9534 25.5237 30.6038 25.9506 31.3283C26.3739 32.0343 26.5733 32.7737 26.5486 33.5464C26.5315 34.3081 26.2796 35.0475 25.7932 35.7648ZM24.5264 35.3165C25.0354 34.5661 25.1784 33.7851 24.9556 32.9734C24.7218 32.1543 24.1083 31.4079 23.1152 30.7343C22.111 30.0533 21.1907 29.7593 20.3542 29.8525C19.5177 29.9456 18.8449 30.3674 18.336 31.1178C17.8271 31.8681 17.684 32.6491 17.9068 33.4608C18.1296 34.2725 18.7431 35.0188 19.7472 35.6999C20.7404 36.3735 21.6607 36.6674 22.5083 36.5818C23.3448 36.4886 24.0175 36.0668 24.5264 35.3165Z" fill="white"/>
<path d="M30.8808 29.8513C30.3893 30.3017 29.8614 30.6137 29.297 30.7872C28.7335 30.9419 28.1855 30.9558 27.6532 30.8287C27.1208 30.7017 26.6654 30.4318 26.2871 30.0189C25.8097 29.4979 25.564 28.9634 25.5502 28.4155C25.5462 27.8585 25.7953 27.2324 26.2974 26.5371C26.8005 25.8229 27.5926 24.9704 28.6739 23.9795L29.1458 23.5471L28.7269 23.09C28.1684 22.4805 27.6397 22.1602 27.1409 22.129C26.643 22.079 26.1187 22.3062 25.5682 22.8106C25.1357 23.207 24.7765 23.6537 24.4906 24.1509C24.1956 24.6382 23.9629 25.2131 23.7925 25.8757L22.5824 25.3841C22.7127 24.7764 22.9712 24.1506 23.3579 23.5069C23.7544 22.8542 24.1984 22.3026 24.6899 21.8522C25.614 21.0054 26.5044 20.6055 27.3611 20.6523C28.2276 20.6901 29.0978 21.1858 29.9716 22.1393L34.1064 26.6513L32.9857 27.6782L31.8507 26.4396C32.0513 27.0335 32.0676 27.6334 31.8996 28.2395C31.7414 28.8366 31.4018 29.3738 30.8808 29.8513ZM30.2483 28.7762C30.8381 28.2357 31.1351 27.5928 31.1393 26.8474C31.1345 26.0922 30.8438 25.4001 30.2673 24.771L29.8619 24.3286L29.4048 24.7475C28.6086 25.4771 28.0155 26.093 27.6255 26.595C27.2364 27.0782 27.034 27.4988 27.0184 27.8567C27.0036 28.1958 27.1404 28.5226 27.4286 28.8372C27.798 29.2402 28.2374 29.4434 28.7468 29.4467C29.2661 29.4411 29.7666 29.2176 30.2483 28.7762Z" fill="white"/>
<path d="M38.3594 24.1992C37.5118 24.7042 36.7236 24.8401 35.9949 24.6068C35.2708 24.3553 34.6256 23.7541 34.0592 22.8034L28.4909 13.4563L29.8827 12.6272L35.3895 21.8712C36.1197 23.0969 36.9716 23.4197 37.9452 22.8397C38.2316 22.6691 38.4689 22.4812 38.657 22.276L39.3187 23.4648C39.0114 23.7566 38.6916 24.0014 38.3594 24.1992Z" fill="white"/>
<path d="M47.8883 19.6651L47.7011 18.4596L53.9472 5.89261L45.943 7.13524L45.7252 5.73205L55.7056 4.18259L55.8928 5.38815L49.627 17.9582L57.9276 16.6695L58.1454 18.0727L47.8883 19.6651Z" fill="white"/>
<path d="M61.2203 18.6992C60.5558 18.6453 59.968 18.4705 59.4569 18.1749C58.9602 17.867 58.5774 17.4747 58.3084 16.9981C58.0394 16.5214 57.9276 16.004 57.9729 15.4458C58.03 14.7415 58.2548 14.1979 58.647 13.815C59.0526 13.4333 59.681 13.19 60.5323 13.0852C61.3979 12.9682 62.5616 12.969 64.0235 13.0877L64.6614 13.1394L64.7116 12.5215C64.7784 11.6975 64.6537 11.0921 64.3373 10.7052C64.0353 10.3062 63.5121 10.0764 62.7679 10.016C62.1832 9.96853 61.6113 10.0091 61.0524 10.1376C60.4946 10.2528 59.9149 10.4733 59.3132 10.799L58.8505 9.57761C59.3847 9.25978 60.0192 9.02368 60.7541 8.8693C61.5023 8.716 62.2086 8.66632 62.8731 8.72026C64.1223 8.82167 65.0211 9.2023 65.5695 9.86217C66.1312 10.5231 66.3598 11.4981 66.2551 12.7872L65.76 18.8872L64.2449 18.7642L64.3809 17.0897C64.082 17.6407 63.6533 18.0607 63.0947 18.3498C62.5494 18.6399 61.9246 18.7564 61.2203 18.6992ZM61.5781 17.5043C62.3755 17.569 63.0488 17.3494 63.5981 16.8456C64.1484 16.3284 64.458 15.6445 64.5271 14.794L64.5756 14.196L63.9577 14.1458C62.8812 14.0584 62.0264 14.0425 61.3931 14.0981C60.7742 14.1416 60.3283 14.2793 60.0553 14.5113C59.7967 14.7311 59.6501 15.0536 59.6156 15.4789C59.5713 16.0237 59.7213 16.484 60.0653 16.8598C60.4227 17.2366 60.9269 17.4514 61.5781 17.5043Z" fill="white"/>
<path d="M67.3157 22.9157L70.0437 19.8415L69.0559 9.48639L70.732 10.0234L71.3943 18.5101L76.884 11.9943L78.503 12.513L68.9346 23.4344L67.3157 22.9157Z" fill="white"/>
<path d="M75.5586 25.9353L78.9264 23.5793L80.3726 13.2782L81.878 14.1901L80.5495 22.5983L87.4034 17.537L88.8574 18.4177L77.0126 26.816L75.5586 25.9353Z" fill="white"/>
<path d="M86.2856 29.3962C85.8074 28.9317 85.4653 28.4228 85.2592 27.8695C85.072 27.3159 85.0264 26.7697 85.1223 26.2308C85.2182 25.692 85.4612 25.2217 85.8514 24.82C86.3437 24.3131 86.863 24.0368 87.4093 23.9912C87.9651 23.9548 88.6046 24.1671 89.3279 24.6281C90.0701 25.0887 90.9672 25.83 92.0192 26.8519L92.4783 27.2978L92.9103 26.8531C93.4863 26.2601 93.7754 25.7138 93.7775 25.214C93.7986 24.7139 93.5413 24.2038 93.0057 23.6836C92.5849 23.2748 92.118 22.9421 91.6051 22.6856C91.1015 22.4194 90.514 22.2205 89.8426 22.0889L90.2631 20.8523C90.8774 20.947 91.517 21.1688 92.1822 21.5174C92.8568 21.8753 93.4333 22.2865 93.9115 22.751C94.8105 23.6243 95.2615 24.49 95.2646 25.348C95.2772 26.2152 94.8329 27.1128 93.9318 28.0405L89.6676 32.4304L88.5773 31.3713L89.7479 30.1663C89.1667 30.401 88.5687 30.4521 87.9538 30.3196C87.3486 30.1964 86.7925 29.8886 86.2856 29.3962ZM87.3222 28.7023C87.896 29.2597 88.5551 29.5188 89.2994 29.4797C90.053 29.4311 90.7271 29.1007 91.3217 28.4886L91.7398 28.0582L91.295 27.6262C90.5203 26.8737 89.8711 26.3174 89.3472 25.9573C88.8423 25.5969 88.4107 25.4193 88.0524 25.4245C87.713 25.4294 87.3947 25.5849 87.0974 25.891C86.7165 26.2831 86.5392 26.7336 86.5655 27.2423C86.6013 27.7604 86.8535 28.2471 87.3222 28.7023Z" fill="white"/>
<path d="M90.8098 33.7142L99.0105 28.4963L99.8587 29.8294L98.4582 30.7205C99.1474 30.6612 99.7789 30.7967 100.353 31.1271C100.926 31.4574 101.41 31.932 101.804 32.5507C103.042 34.4968 102.581 36.157 100.421 37.5313L95.3083 40.7844L94.4387 39.4176L99.4671 36.2181C100.232 35.7314 100.692 35.2253 100.848 34.6996C101.022 34.1781 100.901 33.5911 100.486 32.9387C100.006 32.185 99.3872 31.7334 98.6284 31.5841C97.888 31.4388 97.1297 31.6131 96.3535 32.107L91.6794 35.081L90.8098 33.7142Z" fill="white"/>
<path d="M102.81 47.8602L104.131 47.6343L105.075 53.1542L103.754 53.38L102.81 47.8602Z" fill="white"/>
</svg>
